<mxfile host="app.diagrams.net" modified="2023-11-08T08:59:44.881Z" agent="Mozilla/5.0 (Macintosh; Intel Mac OS X 10_15_7) AppleWebKit/537.36 (KHTML, like Gecko) Chrome/119.0.0.0 Safari/537.36" version="22.0.8" etag="nbRXR-FtJX5d565q1mfY" type="github">
  <diagram name="PÃ¡gina-1" id="_vN1DD_G4Nvz66xRnpP7">
    <mxGraphModel>
      <root>
        <mxCell id="0" />
        <mxCell id="1" parent="0" />
      </root>
    </mxGraphModel>
  </diagram>
</mxfile>
